# xmcd
#
# Track frame offsets: 
#        150
#        18298
#        39282
#        65527
#        87343
#        111100
#        132677
#        153448
#        174640
#        197549
#        221355
#        244669
#        266326
#        287437
#        310626
#
# Disc length: 4527 seconds
#
# Revision: 0
# Processed by: cddbd v1.5.2PL0 Copyright (c) Steve Scherf et al.
# Submitted via: ExactAudioCopy v1.0b3
#
DISCID=c611ad0f
DTITLE=諫山実生 - ユメミゴコチ
DYEAR=1900
DGENRE=
TTITLE0=手紙
TTITLE1=恋花火
TTITLE2=Eternal Love
TTITLE3=JOURNEY OF LIFE
TTITLE4=朝陽の中で微笑んで
TTITLE5=Winter Story
TTITLE6=誓い
TTITLE7=月のワルツ
TTITLE8=サハラの誘惑
TTITLE9=スピカ
TTITLE10=HORIZON
TTITLE11=あなたに贈る詩 (album version)
TTITLE12=とおりゃんせ
TTITLE13=絆
TTITLE14=月恋花 (ボーナス・トラック)
EXTD=
EXTT0=
EXTT1=
EXTT2=
EXTT3=
EXTT4=
EXTT5=
EXTT6=
EXTT7=
EXTT8=
EXTT9=
EXTT10=
EXTT11=
EXTT12=
EXTT13=
EXTT14=
PLAYORDER=
